<?xml version="1.0" standalone="no"?><!-- Generator: Gravit.io --><svg xmlns="http://www.w3.org/2000/svg" xmlns:xlink="http://www.w3.org/1999/xlink" style="isolation:isolate" viewBox="0 0 200 200" width="200" height="200"><defs><clipPath id="_clipPath_K5illtBniS6z7CRdehxO4a8QH4RDY4vx"><rect width="200" height="200"/></clipPath></defs><g clip-path="url(#_clipPath_K5illtBniS6z7CRdehxO4a8QH4RDY4vx)"><path d=" M 180.57817 83.48611 C 180.57817 11.86107 109.84844 17.23295 100 56.62672 Q 100 55.73141 100 181.97054 Q 180.57817 127.95842 180.57817 83.48611 Z  M 19.42183 83.48611 C 19.42183 11.86107 90.15156 17.23295 100 56.62672 Q 100 55.73141 100 181.97054 Q 19.42183 127.95842 19.42183 83.48611 Z " fill="rgb(0,150,136)"/><g id="Group"><path d=" M 112.18672 140.34336 C 112.18672 119.5601 129.0601 102.68673 149.84336 102.68673 C 170.62662 102.68673 187.5 119.5601 187.5 140.34336 C 187.5 161.12663 170.62662 178 149.84336 178 C 129.0601 178 112.18672 161.12663 112.18672 140.34336 Z " fill="rgb(0,150,136)" vector-effect="non-scaling-stroke" stroke-width="5" stroke="rgb(255,255,255)" stroke-linejoin="miter" stroke-linecap="square" stroke-miterlimit="3"/><path d=" M 154.53247 135.65425 L 154.53247 111.73182 L 145.15424 111.73182 L 145.15424 135.65425 L 121.23182 135.65425 L 121.23182 145.03248 L 145.15424 145.03248 L 145.15424 168.95491 L 154.53247 168.95491 L 154.53247 145.03248 L 178.4549 145.03248 L 178.4549 135.65425 L 154.53247 135.65425 Z " fill="rgb(255,255,255)"/></g></g></svg>