<?xml version="1.0" standalone="no"?><!-- Generator: Gravit.io --><svg xmlns="http://www.w3.org/2000/svg" xmlns:xlink="http://www.w3.org/1999/xlink" style="isolation:isolate" viewBox="0 0 200 200" width="200" height="200"><defs><clipPath id="_clipPath_1n80bbKGuk9kSPfemS5mkU55ZbPBvAj3"><rect width="200" height="200"/></clipPath></defs><g clip-path="url(#_clipPath_1n80bbKGuk9kSPfemS5mkU55ZbPBvAj3)"><path d=" M 54.59336 74.5 C 56.10845 42.14229 75.87396 16.5 100 16.5 C 124.12604 16.5 143.89155 42.14229 145.40664 74.5 L 134.89778 74.5 C 133.52115 47.66638 118.41118 26.5 100 26.5 C 81.58882 26.5 66.47885 47.66638 65.10222 74.5 L 54.59336 74.5 Z " fill-rule="evenodd" fill="rgb(0,150,136)"/><path d=" M 32.5 74.5 L 167.5 74.5 L 187.5 183.5 L 12.5 183.5 L 32.5 74.5 Z " fill="rgb(0,150,136)"/><path d=" M 59.75 124 C 56.99404 79.9046 95.25 91.25 100 107.75 C 105.5 91.5 143.19046 79.89313 140.25 124 Q 139.25 139 100 170.25 Q 60.75 140 59.75 124 Z " fill="rgb(235,235,235)"/></g></svg>