<?xml version="1.0" standalone="no"?><!-- Generator: Gravit.io --><svg xmlns="http://www.w3.org/2000/svg" xmlns:xlink="http://www.w3.org/1999/xlink" style="isolation:isolate" viewBox="0 0 200 200" width="200" height="200"><defs><clipPath id="_clipPath_mEFg7Dnh0c1oclxHGQPYi4JsiC6t9sWl"><rect width="200" height="200"/></clipPath></defs><g clip-path="url(#_clipPath_mEFg7Dnh0c1oclxHGQPYi4JsiC6t9sWl)"><path d=" M 54.593 74.5 C 56.108 42.142 75.874 16.5 100 16.5 C 124.126 16.5 143.892 42.142 145.407 74.5 L 134.898 74.5 C 133.521 47.666 118.411 26.5 100 26.5 C 81.589 26.5 66.479 47.666 65.102 74.5 L 54.593 74.5 Z " fill-rule="evenodd" fill="rgb(0,150,136)"/><path d=" M 32.5 74.5 L 167.5 74.5 L 187.5 183.5 L 12.5 183.5 L 32.5 74.5 Z " fill="rgb(0,150,136)"/><path d=" M 59.75 124 C 56.994 79.905 95.25 91.25 100 107.75 C 105.5 91.5 143.19 79.893 140.25 124 Q 139.25 139 100 170.25 Q 60.75 140 59.75 124 Z " fill="rgb(235,235,235)"/></g></svg>