<?xml version="1.0" standalone="no"?><!-- Generator: Gravit.io --><svg xmlns="http://www.w3.org/2000/svg" xmlns:xlink="http://www.w3.org/1999/xlink" style="isolation:isolate" viewBox="0 0 200 200" width="200" height="200"><defs><clipPath id="_clipPath_Ez2lXxdBCdhzHqeyhrIrrSfabRaCliD6"><rect width="200" height="200"/></clipPath></defs><g clip-path="url(#_clipPath_Ez2lXxdBCdhzHqeyhrIrrSfabRaCliD6)"><rect x="26" y="55" width="148" height="135" transform="matrix(1,0,0,1,0,0)" fill="rgb(0,150,136)"/><rect x="26" y="10" width="148" height="45" transform="matrix(1,0,0,1,0,0)" fill="rgb(0,150,136)"/><rect x="26" y="50.975" width="148" height="9.552" transform="matrix(1,0,0,1,0,0)" fill="rgb(255,255,255)"/><path d=" M 82.969 96.533 L 82.969 147.932 L 77.273 147.932 L 77.273 111.299 L 77.273 111.299 Q 77.273 106.729 77.555 102.65 L 77.555 102.65 L 77.555 102.65 Q 76.816 103.389 75.902 104.197 L 75.902 104.197 L 75.902 104.197 Q 74.988 105.006 67.535 111.053 L 67.535 111.053 L 64.441 107.045 L 78.047 96.533 L 82.969 96.533 L 82.969 96.533 Z  M 136.301 142.518 L 136.301 147.932 L 102.516 147.932 L 102.516 142.904 L 116.051 129.299 L 116.051 129.299 Q 122.238 123.041 124.207 120.369 L 124.207 120.369 L 124.207 120.369 Q 126.176 117.697 127.16 115.166 L 127.16 115.166 L 127.16 115.166 Q 128.145 112.635 128.145 109.717 L 128.145 109.717 L 128.145 109.717 Q 128.145 105.604 125.648 103.195 L 125.648 103.195 L 125.648 103.195 Q 123.152 100.787 118.723 100.787 L 118.723 100.787 L 118.723 100.787 Q 115.523 100.787 112.658 101.842 L 112.658 101.842 L 112.658 101.842 Q 109.793 102.896 106.277 105.674 L 106.277 105.674 L 103.184 101.701 L 103.184 101.701 Q 110.285 95.795 118.652 95.795 L 118.652 95.795 L 118.652 95.795 Q 125.895 95.795 130.008 99.504 L 130.008 99.504 L 130.008 99.504 Q 134.121 103.213 134.121 109.471 L 134.121 109.471 L 134.121 109.471 Q 134.121 114.357 131.379 119.139 L 131.379 119.139 L 131.379 119.139 Q 128.637 123.92 121.113 131.232 L 121.113 131.232 L 109.863 142.236 L 109.863 142.518 L 136.301 142.518 L 136.301 142.518 Z " fill-rule="evenodd" fill="rgb(255,255,255)"/></g></svg>