<?xml version="1.0" standalone="no"?><!-- Generator: Gravit.io --><svg xmlns="http://www.w3.org/2000/svg" xmlns:xlink="http://www.w3.org/1999/xlink" style="isolation:isolate" viewBox="0 0 200 200" width="200" height="200"><defs><clipPath id="_clipPath_mBQolhhkzbq9tkBL5AVNfHIvc1KLFqnU"><rect width="200" height="200"/></clipPath></defs><g clip-path="url(#_clipPath_mBQolhhkzbq9tkBL5AVNfHIvc1KLFqnU)"><g id="Group"><path d=" M 65.72891 100.8327 L 60.82396 100.8327 C 50.73479 100.8327 41.62907 108.9726 40.50255 118.99868 L 34.21667 174.94304 L 165.78333 174.94304 L 159.49745 118.99868 C 158.37093 108.9726 149.26521 100.8327 139.17604 100.8327 L 134.32847 100.8327 C 134.13332 101.83291 133.91983 102.78276 133.6886 103.65682 C 128.70852 122.48135 115.49743 136.63882 100 136.63882 C 85.18592 136.63882 72.46099 123.9178 67.01768 106.13309 C 66.52787 104.53275 66.09702 102.73031 65.72891 100.8327 Z " fill="rgb(0,150,136)"/><path d=" M 64.19388 64.61023 C 64.19388 40.48229 80.23806 25.05696 100 25.05696 C 119.76194 25.05696 135.80612 40.48229 135.80612 64.61023 C 135.80612 88.73818 119.76194 118.31941 100 118.31941 C 80.23806 118.31941 64.19388 88.73818 64.19388 64.61023 Z " fill="rgb(0,150,136)"/></g></g></svg>