<?xml version="1.0" standalone="no"?><!-- Generator: Gravit.io --><svg xmlns="http://www.w3.org/2000/svg" xmlns:xlink="http://www.w3.org/1999/xlink" style="isolation:isolate" viewBox="0 0 200 200" width="200" height="200"><defs><clipPath id="_clipPath_vYBRpUDdNUfjG2SAdq06WpIyx9gVfs4p"><rect width="200" height="200"/></clipPath></defs><g clip-path="url(#_clipPath_vYBRpUDdNUfjG2SAdq06WpIyx9gVfs4p)"><g id="Group"><path d=" M 10.995 146.581 C 10.995 134.481 20.819 124.656 32.919 124.656 C 45.02 124.656 54.844 134.481 54.844 146.581 C 54.844 158.682 45.02 168.506 32.919 168.506 C 20.819 168.506 10.995 158.682 10.995 146.581 Z  M 24.844 146.581 C 24.844 142.124 28.463 138.506 32.919 138.506 C 37.376 138.506 40.995 142.124 40.995 146.581 C 40.995 151.038 37.376 154.656 32.919 154.656 C 28.463 154.656 24.844 151.038 24.844 146.581 Z " fill-rule="evenodd" fill="rgb(0,150,136)"/><path d=" M 120.995 146.581 C 120.995 134.481 130.819 124.656 142.919 124.656 C 155.02 124.656 164.844 134.481 164.844 146.581 C 164.844 158.682 155.02 168.506 142.919 168.506 C 130.819 168.506 120.995 158.682 120.995 146.581 Z  M 134.844 146.581 C 134.844 142.124 138.463 138.506 142.919 138.506 C 147.376 138.506 150.995 142.124 150.995 146.581 C 150.995 151.038 147.376 154.656 142.919 154.656 C 138.463 154.656 134.844 151.038 134.844 146.581 Z " fill-rule="evenodd" fill="rgb(0,150,136)"/><path d="M 186.049 32.774 L 187.05 33.547 C 189.485 35.427 189.671 38.694 187.467 40.839 L 162.64 64.992 C 160.435 67.136 156.669 67.351 154.235 65.472 L 153.234 64.699 C 150.8 62.819 150.613 59.552 152.818 57.407 L 177.645 33.254 C 179.849 31.11 183.615 30.895 186.049 32.774 Z" style="stroke:none;fill:#009688;stroke-miterlimit:10;"/><path d=" M 12.091 52.299 L 173.238 52.299 L 142.078 137.811 L 36.674 137.811 L 12.091 52.299 L 12.091 52.299 Z  M 87.183 126.41 L 51.605 126.41 L 43.957 99.806 L 87.183 99.806 L 87.183 126.41 Z  M 138.595 99.806 L 128.901 126.41 L 98.146 126.41 L 98.146 99.806 L 138.595 99.806 Z  M 98.146 63.701 L 151.752 63.701 L 142.058 90.304 L 98.146 90.304 L 98.146 63.701 Z  M 87.183 63.701 L 33.577 63.701 L 33.577 63.701 L 41.225 90.304 L 87.183 90.304 L 87.183 63.701 Z " fill-rule="evenodd" fill="rgb(0,150,136)"/></g></g></svg>