<?xml version="1.0" standalone="no"?><!-- Generator: Gravit.io --><svg xmlns="http://www.w3.org/2000/svg" xmlns:xlink="http://www.w3.org/1999/xlink" style="isolation:isolate" viewBox="0 0 200 200" width="200" height="200"><defs><clipPath id="_clipPath_M1OrS0YCN4vNaVhwwV8C5zYdUSRnmSFQ"><rect width="200" height="200"/></clipPath></defs><g clip-path="url(#_clipPath_M1OrS0YCN4vNaVhwwV8C5zYdUSRnmSFQ)"><path d=" M 160 70 L 100 70 L 100 180 L 140 180 L 160 70 Z  M 140 88.333 L 110 88.333 L 110 161.667 L 130 161.667 L 140 88.333 Z  M 40 70 L 100 70 L 100 180 L 60 180 L 40 70 M 60 88.333 L 90 88.333 L 90 161.667 L 70 161.667 L 60 88.333 M 40 70 Z " fill-rule="evenodd" fill="rgb(0,150,136)"/><path d=" M 42 40 C 54.5 32.25 72.5 31 100 30 Q 100.125 53.875 100 60 L 40 60 Q 41 49 42 40 Z " fill="rgb(0,150,136)"/><path d=" M 158.063 40 C 145.563 32.25 127.563 31 100.063 30 Q 99.937 53.875 100.063 60 L 160.063 60 Q 159.063 49 158.063 40 Z " fill="rgb(0,150,136)"/><path d=" M 80 20 L 120 20 L 124 40 L 76 40 L 80 20 Z " fill="rgb(0,150,136)"/></g></svg>