<?xml version="1.0" standalone="no"?><!-- Generator: Gravit.io --><svg xmlns="http://www.w3.org/2000/svg" xmlns:xlink="http://www.w3.org/1999/xlink" style="isolation:isolate" viewBox="0 0 200 200" width="200" height="200"><defs><clipPath id="_clipPath_0oVjV4J6b9F5kzX468RTsIvoBUFp0WaL"><rect width="200" height="200"/></clipPath></defs><g clip-path="url(#_clipPath_0oVjV4J6b9F5kzX468RTsIvoBUFp0WaL)"><path d=" M 80.208 53.689 C 60.806 61.531 47.102 80.555 47.102 102.754 C 47.102 131.949 70.805 155.651 100 155.651 C 129.195 155.651 152.898 131.949 152.898 102.754 C 152.898 80.469 139.088 61.384 119.567 53.598 L 126.682 35.724 C 153.302 46.341 172.133 72.366 172.133 102.754 C 172.133 142.565 139.811 174.887 100 174.887 C 60.189 174.887 27.867 142.565 27.867 102.754 C 27.867 72.366 46.698 46.341 73.318 35.724 L 75.208 40.471 L 69.398 25.113 L 89.735 28.436 L 110.071 31.758 L 97.026 47.709 L 83.98 63.66 L 80.208 53.689 Z " fill="rgb(0,150,136)"/></g></svg>