<?xml version="1.0" standalone="no"?><!-- Generator: Gravit.io --><svg xmlns="http://www.w3.org/2000/svg" xmlns:xlink="http://www.w3.org/1999/xlink" style="isolation:isolate" viewBox="0 0 200 200" width="200" height="200"><defs><clipPath id="_clipPath_cJyQ1vZxfjW6yZndCxGJHq5BkYx2pDI4"><rect width="200" height="200"/></clipPath></defs><g clip-path="url(#_clipPath_cJyQ1vZxfjW6yZndCxGJHq5BkYx2pDI4)"><g id="Group"><path d=" M 10.99458 146.58129 C 10.99458 134.48064 20.81877 124.65645 32.91942 124.65645 C 45.02007 124.65645 54.84426 134.48064 54.84426 146.58129 C 54.84426 158.68194 45.02007 168.50613 32.91942 168.50613 C 20.81877 168.50613 10.99458 158.68194 10.99458 146.58129 Z  M 24.84426 146.58129 C 24.84426 142.12449 28.46262 138.50613 32.91942 138.50613 C 37.37622 138.50613 40.99458 142.12449 40.99458 146.58129 C 40.99458 151.03809 37.37622 154.65645 32.91942 154.65645 C 28.46262 154.65645 24.84426 151.03809 24.84426 146.58129 Z " fill-rule="evenodd" fill="rgb(0,150,136)"/><path d=" M 120.99458 146.58129 C 120.99458 134.48064 130.81877 124.65645 142.91942 124.65645 C 155.02007 124.65645 164.84426 134.48064 164.84426 146.58129 C 164.84426 158.68194 155.02007 168.50613 142.91942 168.50613 C 130.81877 168.50613 120.99458 158.68194 120.99458 146.58129 Z  M 134.84426 146.58129 C 134.84426 142.12449 138.46262 138.50613 142.91942 138.50613 C 147.37622 138.50613 150.99458 142.12449 150.99458 146.58129 C 150.99458 151.03809 147.37622 154.65645 142.91942 154.65645 C 138.46262 154.65645 134.84426 151.03809 134.84426 146.58129 Z " fill-rule="evenodd" fill="rgb(0,150,136)"/><path d="M 186.04917 32.77419 L 187.05038 33.5473 C 189.48461 35.42694 189.6712 38.69409 187.4668 40.83864 L 162.63978 64.99168 C 160.43538 67.13624 156.6694 67.35132 154.23517 65.47168 L 153.23396 64.69857 C 150.79973 62.81893 150.61314 59.55179 152.81754 57.40723 L 177.64456 33.25419 C 179.84896 31.10963 183.61494 30.89455 186.04917 32.77419 Z" style="stroke:none;fill:#009688;stroke-miterlimit:10;"/><path d=" M 12.09082 52.29884 L 173.23841 52.29884 L 142.07811 137.81135 L 36.67367 137.81135 L 12.09082 52.29884 L 12.09082 52.29884 Z  M 87.18341 126.40968 L 51.60459 126.40968 L 43.95659 99.80579 L 87.18341 99.80579 L 87.18341 126.40968 Z  M 138.5955 99.80579 L 128.90118 126.40968 L 98.14583 126.40968 L 98.14583 99.80579 L 138.5955 99.80579 Z  M 98.14583 63.70051 L 151.75208 63.70051 L 142.05776 90.3044 L 98.14583 90.3044 L 98.14583 63.70051 Z  M 87.18341 63.70051 L 33.57716 63.70051 L 33.57716 63.70051 L 41.22516 90.3044 L 87.18341 90.3044 L 87.18341 63.70051 Z " fill-rule="evenodd" fill="rgb(0,150,136)"/></g></g></svg>