<?xml version="1.0" standalone="no"?><!-- Generator: Gravit.io --><svg xmlns="http://www.w3.org/2000/svg" xmlns:xlink="http://www.w3.org/1999/xlink" style="isolation:isolate" viewBox="0 0 200 200" width="200" height="200"><defs><clipPath id="_clipPath_bhWas6ydXzGtywlWMjpH2FokTDfoqRr6"><rect width="200" height="200"/></clipPath></defs><g clip-path="url(#_clipPath_bhWas6ydXzGtywlWMjpH2FokTDfoqRr6)"><path d=" M 180.578 83.486 C 180.578 11.861 109.848 17.233 100 56.627 Q 100 55.731 100 181.971 Q 180.578 127.958 180.578 83.486 Z  M 19.422 83.486 C 19.422 11.861 90.152 17.233 100 56.627 Q 100 55.731 100 181.971 Q 19.422 127.958 19.422 83.486 Z " fill="rgb(0,150,136)"/><g id="Group"><path d=" M 75.578 93.5 C 75.578 67.836 96.414 47 122.078 47 C 147.742 47 168.578 67.836 168.578 93.5 C 168.578 119.164 147.742 140 122.078 140 C 96.414 140 75.578 119.164 75.578 93.5 Z " fill="none" vector-effect="non-scaling-stroke" stroke-width="10" stroke="rgb(255,255,255)" stroke-linejoin="miter" stroke-linecap="square" stroke-miterlimit="3"/><path d=" M 127.897 87.681 L 127.897 57.996 L 116.259 57.996 L 116.259 87.681 L 86.574 87.681 L 86.574 99.319 L 116.259 99.319 L 116.259 129.004 L 127.897 129.004 L 127.897 99.319 L 157.582 99.319 L 157.582 87.681 L 127.897 87.681 Z " fill="rgb(255,255,255)"/></g></g></svg>