<?xml version="1.0" standalone="no"?><!-- Generator: Gravit.io --><svg xmlns="http://www.w3.org/2000/svg" xmlns:xlink="http://www.w3.org/1999/xlink" style="isolation:isolate" viewBox="0 0 200 200" width="200" height="200"><defs><clipPath id="_clipPath_U2Q8m6APwiFVkFXPKEeVe6o8IiTYAa9B"><rect width="200" height="200"/></clipPath></defs><g clip-path="url(#_clipPath_U2Q8m6APwiFVkFXPKEeVe6o8IiTYAa9B)"><path d=" M 54.593 74.5 C 56.108 42.142 75.874 16.5 100 16.5 C 124.126 16.5 143.892 42.142 145.407 74.5 L 134.898 74.5 C 133.521 47.666 118.411 26.5 100 26.5 C 81.589 26.5 66.479 47.666 65.102 74.5 L 54.593 74.5 Z " fill-rule="evenodd" fill="rgb(0,150,136)"/><path d=" M 173.83 109 L 187.5 183.5 L 12.5 183.5 L 26.17 109 L 173.83 109 Z  M 171.995 99 L 167.5 74.5 L 32.5 74.5 L 28.005 99 L 171.995 99 Z " fill="rgb(0,150,136)"/><g id="Group"><path d=" M 75.578 93.5 C 75.578 67.836 96.414 47 122.078 47 C 147.742 47 168.578 67.836 168.578 93.5 C 168.578 119.164 147.742 140 122.078 140 C 96.414 140 75.578 119.164 75.578 93.5 Z " fill="rgb(0,150,136)" vector-effect="non-scaling-stroke" stroke-width="10" stroke="rgb(255,255,255)" stroke-linejoin="miter" stroke-linecap="square" stroke-miterlimit="3"/><path d=" M 127.897 87.681 L 127.897 57.996 L 116.259 57.996 L 116.259 87.681 L 86.574 87.681 L 86.574 99.319 L 116.259 99.319 L 116.259 129.004 L 127.897 129.004 L 127.897 99.319 L 157.582 99.319 L 157.582 87.681 L 127.897 87.681 Z " fill="rgb(255,255,255)"/></g></g></svg>