<?xml version="1.0" standalone="no"?><!-- Generator: Gravit.io --><svg xmlns="http://www.w3.org/2000/svg" xmlns:xlink="http://www.w3.org/1999/xlink" style="isolation:isolate" viewBox="0 0 200 200" width="200" height="200"><defs><clipPath id="_clipPath_871bM1FZqaL2DETvN5YJkvGl66ilPP8Z"><rect width="200" height="200"/></clipPath></defs><g clip-path="url(#_clipPath_871bM1FZqaL2DETvN5YJkvGl66ilPP8Z)"><path d=" M 54.593 74.5 C 56.108 42.142 75.874 16.5 100 16.5 C 124.126 16.5 143.892 42.142 145.407 74.5 L 134.898 74.5 C 133.521 47.666 118.411 26.5 100 26.5 C 81.589 26.5 66.479 47.666 65.102 74.5 L 54.593 74.5 Z " fill-rule="evenodd" fill="rgb(0,150,136)"/><path d=" M 32.5 74.5 L 167.5 74.5 L 187.5 183.5 L 12.5 183.5 L 32.5 74.5 Z " fill="rgb(0,150,136)"/><g id="Group"><path d=" M 75.578 93.5 C 75.578 67.836 96.414 47 122.078 47 C 147.742 47 168.578 67.836 168.578 93.5 C 168.578 119.164 147.742 140 122.078 140 C 96.414 140 75.578 119.164 75.578 93.5 Z " fill="rgb(0,150,136)" vector-effect="non-scaling-stroke" stroke-width="10" stroke="rgb(255,255,255)" stroke-linejoin="miter" stroke-linecap="square" stroke-miterlimit="3"/></g><path d=" M 97.731 88.854 C 96.065 62.189 119.199 69.05 122.072 79.028 C 125.398 69.201 148.19 62.182 146.412 88.854 Q 145.807 97.925 122.072 116.823 Q 98.336 98.53 97.731 88.854 Z " fill="rgb(235,235,235)"/></g></svg>