<?xml version="1.0" standalone="no"?><!-- Generator: Gravit.io --><svg xmlns="http://www.w3.org/2000/svg" xmlns:xlink="http://www.w3.org/1999/xlink" style="isolation:isolate" viewBox="0 0 200 200" width="200" height="200"><defs><clipPath id="_clipPath_qZydxK86TSThPcboiqi4Y9mrdUobN1ez"><rect width="200" height="200"/></clipPath></defs><g clip-path="url(#_clipPath_qZydxK86TSThPcboiqi4Y9mrdUobN1ez)"><g id="Group"><path d=" M 65.729 100.833 L 60.824 100.833 C 50.735 100.833 41.629 108.973 40.503 118.999 L 34.217 174.943 L 165.783 174.943 L 159.497 118.999 C 158.371 108.973 149.265 100.833 139.176 100.833 L 134.328 100.833 C 134.133 101.833 133.92 102.783 133.689 103.657 C 128.709 122.481 115.497 136.639 100 136.639 C 85.186 136.639 72.461 123.918 67.018 106.133 C 66.528 104.533 66.097 102.73 65.729 100.833 Z " fill="rgb(0,150,136)"/><path d=" M 64.194 64.61 C 64.194 40.482 80.238 25.057 100 25.057 C 119.762 25.057 135.806 40.482 135.806 64.61 C 135.806 88.738 119.762 118.319 100 118.319 C 80.238 118.319 64.194 88.738 64.194 64.61 Z " fill="rgb(0,150,136)"/></g></g></svg>