<?xml version="1.0" standalone="no"?><!-- Generator: Gravit.io --><svg xmlns="http://www.w3.org/2000/svg" xmlns:xlink="http://www.w3.org/1999/xlink" style="isolation:isolate" viewBox="0 0 200 200" width="200" height="200"><defs><clipPath id="_clipPath_v6XODHj2j5kdCYmQdLAoXdvehyMW4tD6"><rect width="200" height="200"/></clipPath></defs><g clip-path="url(#_clipPath_v6XODHj2j5kdCYmQdLAoXdvehyMW4tD6)"><path d=" M 80.20809 53.68881 C 60.80599 61.53147 47.10227 80.55486 47.10227 102.75367 C 47.10227 131.94872 70.80495 155.6514 100 155.6514 C 129.19504 155.6514 152.89772 131.94872 152.89772 102.75367 C 152.89772 80.46905 139.08788 61.38446 119.56667 53.59837 L 126.68182 35.72372 C 153.30165 46.34111 172.13326 72.36557 172.13326 102.75367 C 172.13326 142.56509 139.81143 174.88693 100 174.88693 C 60.18857 174.88693 27.86674 142.56509 27.86674 102.75367 C 27.86674 72.36557 46.69836 46.34111 73.31818 35.72372 L 75.20793 40.47114 L 69.39806 25.11307 L 89.73475 28.43555 L 110.07144 31.75804 L 97.02574 47.70889 L 83.98003 63.65973 L 80.20809 53.68881 Z " fill="rgb(0,150,136)"/></g></svg>